<svg width="26" height="25" viewBox="0 0 26 25" fill="none" xmlns="http://www.w3.org/2000/svg">
<path fill-rule="evenodd" clip-rule="evenodd" d="M24.6764 4.54208C24.6276 4.54208 24.6276 4.54208 24.5788 4.54208L12.6131 9.8656L0.452002 4.49324C0.256644 4.54208 0.110125 4.4444 0.012446 4.24904C-0.0363936 4.05369 0.0612856 3.85833 0.256644 3.80949L12.5154 0H12.7107L24.7741 3.85833C24.9695 3.90717 25.0672 4.10253 25.0183 4.29788C24.9695 4.4444 24.823 4.54208 24.6764 4.54208Z" fill="#FFD300"/>
<path fill-rule="evenodd" clip-rule="evenodd" d="M12.6131 18.4618C12.5642 18.4618 12.5154 18.4618 12.4666 18.4618L0.207813 13.4313C0.110134 13.3824 0.012455 13.2848 0.012455 13.1382V9.91483C0.012455 9.81715 0.0612946 9.71947 0.158974 9.62179C0.256653 9.57295 0.403172 9.57295 0.500851 9.62179L12.5642 14.5057L24.5299 9.67063C24.6765 9.62179 24.7741 9.62179 24.8718 9.67063C24.9695 9.76831 25.0183 9.86599 25.0183 9.96367V12.5033C25.0183 12.6498 24.9206 12.7475 24.823 12.7964L12.7596 18.4129C12.7107 18.4618 12.6619 18.4618 12.6131 18.4618Z" fill="#E33E42"/>
<path fill-rule="evenodd" clip-rule="evenodd" d="M12.6131 12.6987C12.5642 12.6987 12.5154 12.6987 12.4666 12.6987L0.207813 7.71706C0.110134 7.61938 0.012455 7.5217 0.012455 7.37518V4.15177C0.012455 4.05409 0.0612946 3.95641 0.158974 3.85873C0.256653 3.80989 0.403172 3.80989 0.500851 3.85873L12.5642 8.74269L24.5299 3.90757C24.6765 3.85873 24.7741 3.85873 24.8718 3.90757C24.9695 4.00525 25.0183 4.10293 25.0183 4.2006V6.74026C25.0183 6.88678 24.9206 6.98446 24.823 7.0333L12.7596 12.6499C12.7107 12.6987 12.6619 12.6987 12.6131 12.6987Z" fill="#FFBE00"/>
<path fill-rule="evenodd" clip-rule="evenodd" d="M12.6131 24.2244C12.5642 24.2244 12.5154 24.2244 12.4666 24.2244L0.207813 19.2428C0.110134 19.1451 0.012455 19.0474 0.012455 18.9009V15.6775C0.012455 15.5798 0.0612946 15.4333 0.158974 15.3845C0.256653 15.3356 0.403172 15.3356 0.500851 15.3356L12.5642 20.2684L24.5299 15.4333C24.6765 15.3845 24.7741 15.3845 24.8718 15.4333C24.9695 15.531 25.0183 15.6287 25.0183 15.7263V18.266C25.0183 18.4125 24.9206 18.5102 24.823 18.559L12.7596 24.1756C12.7107 24.2244 12.6619 24.2244 12.6131 24.2244Z" fill="#5EAC24"/>
</svg>
