<svg width="21" height="31" viewBox="0 0 21 31" fill="none" xmlns="http://www.w3.org/2000/svg">
<path d="M13.4222 25.1634L12.8015 27.0596C12.5175 27.9196 11.6717 28.5971 10.3262 28.8868C7.61589 29.4692 3.91238 28.2658 2.04949 26.1976C1.11316 25.1572 0.818681 24.0954 1.10678 23.2229L1.72748 21.3268C1.43939 22.1993 1.73386 23.2611 2.6702 24.3014C4.53309 26.3697 8.24075 27.5743 10.9469 26.9907C12.2924 26.7009 13.1382 26.0234 13.4222 25.1634Z" fill="#538DBC"/>
<path d="M12.4788 22.1872C14.3417 24.2555 13.6565 26.4068 10.9462 26.9891C8.23584 27.5714 4.53233 26.3681 2.66944 24.2998C0.806555 22.2316 1.49174 20.0803 4.1979 19.4966C6.90406 18.9129 10.6159 20.119 12.4788 22.1872Z" fill="#5592CB"/>
<path d="M13.6615 22.7289L13.0504 24.6098C12.7963 25.406 12.0179 26.0317 10.7816 26.2971C8.30333 26.8306 4.91191 25.7287 3.2081 23.8363C2.35551 22.8922 2.08528 21.9257 2.33936 21.1296L2.9505 19.2487C3.91047 16.2942 7.08749 14.672 10.0461 15.6333C13.0006 16.5933 14.6215 19.7744 13.6615 22.7289Z" fill="#E6E6E6"/>
<path d="M10.4309 16.0209C10.2729 15.9834 10.1162 15.9417 9.96221 15.8917C7.00357 14.9303 5.38548 11.7547 6.34681 8.79602L6.95794 6.91514C7.21203 6.11899 7.99043 5.4932 9.22679 5.22784C11.705 4.6943 15.0964 5.79624 16.8003 7.68861C17.6528 8.63271 17.9231 9.59922 17.669 10.3954L17.0579 12.2763C16.1479 15.0768 13.2502 16.6748 10.4309 16.0209Z" fill="#E6E6E6"/>
<path d="M12.6253 22.3929L12.0128 24.2779C11.875 24.7162 11.3394 25.0621 10.552 25.2341C9.55324 25.4478 8.27118 25.3441 7.03946 24.9439C5.80773 24.5437 4.70404 23.8768 4.01469 23.11C3.46631 22.5039 3.23345 21.9038 3.37261 21.4614L3.98239 19.5847C4.57325 17.7662 6.20797 16.5721 8.00859 16.4533C8.59635 16.4143 9.09556 16.0106 9.27809 15.4488L10.0069 13.2059L11.4966 13.6899L10.7678 15.9329C10.5853 16.4946 10.7519 17.1146 11.2044 17.4917C12.5955 18.6476 13.2162 20.5744 12.6253 22.3929Z" fill="#EF4A51"/>
<path d="M7.15048 10.2306C6.95038 12.3048 8.23485 14.1851 10.2988 14.8558C12.3628 15.5264 14.5018 14.7768 15.5605 12.9769L7.15048 10.2306Z" fill="#EF4A51"/>
<path d="M13.9634 13.7544C12.0831 13.9486 9.41161 13.0806 7.99621 11.8156C6.58081 10.5506 6.95512 9.37024 8.82991 9.1789C10.7102 8.98475 13.3817 9.85277 14.7971 11.1178C16.218 12.3799 15.8437 13.5603 13.9634 13.7544Z" fill="#F95D68"/>
<path d="M19.2591 7.2133L18.6384 9.10947C18.3544 9.9695 17.5086 10.647 16.1631 10.9367C13.4528 11.519 9.74926 10.3157 7.88638 8.24744C6.95004 7.20712 6.65556 6.14532 6.94366 5.27281L7.56437 3.37663C7.27627 4.24914 7.57075 5.31094 8.50708 6.35127C10.37 8.41953 14.0776 9.62423 16.7838 9.04053C18.1293 8.75082 18.9751 8.07332 19.2591 7.2133Z" fill="#538DBC"/>
<path d="M18.3105 4.23714C20.1734 6.3054 19.4882 8.45666 16.7779 9.039C14.0676 9.62134 10.3641 8.418 8.50118 6.34973C6.63829 4.28147 7.32348 2.13021 10.0296 1.54652C12.7358 0.962822 16.449 2.16471 18.3105 4.23714Z" fill="#5592CB"/>
</svg>
