<svg width="20" height="27" viewBox="0 0 20 27" fill="none" xmlns="http://www.w3.org/2000/svg">
<path d="M19.3468 5.19857L16.9316 3.80417L16.3818 1.45607L13.9617 0.0598799L13.9619 0.0609873C13.8102 -0.0339344 13.6073 -0.0204344 13.3915 0.118257L10.9814 1.66743L9.10102 0.736566C8.81056 0.59276 8.3967 0.831752 8.10624 1.3109L6.22589 4.41299L3.81578 5.64681C3.44347 5.8374 3.10866 6.35509 3.011 6.89108L2.37872 10.3611L0.359362 13.2883C0.0474388 13.7404 -0.080442 14.3391 0.0519738 14.7272L0.909223 17.2398L0.0519738 20.7423C-0.0727955 21.252 0.0336752 21.6815 0.307261 21.8064L0.306786 21.8064L2.53349 23.0919L3.01105 25.1615C3.05545 25.354 3.14927 25.4853 3.27304 25.5495L3.27214 25.55L5.6996 26.9509L19.3468 5.19857Z" fill="url(#paint0_linear_1_8429)"/>
<path d="M5.69944 26.9511L4.81292 23.8264L2.53333 23.0921L3.01089 25.1617C3.05529 25.3541 3.1491 25.4854 3.27287 25.5497L3.27197 25.5502L5.69944 26.9511Z" fill="url(#paint1_linear_1_8429)"/>
<path d="M0.909075 17.24L0.0518266 20.7424C-0.0729427 21.2522 0.0335279 21.6817 0.307113 21.8066L0.306639 21.8066L2.53334 23.0921L3.34345 18.6446L0.909075 17.24Z" fill="url(#paint2_linear_1_8429)"/>
<path d="M16.5462 2.15823L16.3818 1.45607L13.9617 0.0598799L13.9619 0.0609873C13.8101 -0.0339344 13.6073 -0.0204344 13.3915 0.118257L10.9813 1.66743L13.4156 3.07206L16.5462 2.15823Z" fill="url(#paint3_linear_1_8429)"/>
<path d="M8.1063 1.31114L6.22595 4.41318L8.66027 5.81781L13.4157 3.07225L10.9814 1.66762L9.10103 0.736758C8.81062 0.593005 8.39676 0.831996 8.1063 1.31114Z" fill="url(#paint4_linear_1_8429)"/>
<path d="M8.1063 1.31114L6.22595 4.41318L8.66027 5.81781L13.4157 3.07225L10.9814 1.66762L9.10103 0.736758C8.81062 0.593005 8.39676 0.831996 8.1063 1.31114Z" fill="url(#paint5_linear_1_8429)"/>
<path d="M8.66016 5.81772L6.22584 4.41304L3.81572 5.64686C3.44342 5.83745 3.10861 6.35514 3.01095 6.89113L2.37866 10.3612L4.81298 11.7658L8.66016 5.81772Z" fill="url(#paint6_linear_1_8429)"/>
<path d="M8.66016 5.81772L6.22584 4.41304L3.81572 5.64686C3.44342 5.83745 3.10861 6.35514 3.01095 6.89113L2.37866 10.3612L4.81298 11.7658L8.66016 5.81772Z" fill="url(#paint7_linear_1_8429)"/>
<path d="M0.0518744 14.727L0.909123 17.2396L3.34344 18.6442L4.81294 11.7655L2.37862 10.3609L0.359263 13.2881C0.0473394 13.7402 -0.0805941 14.3389 0.0518744 14.727Z" fill="url(#paint8_linear_1_8429)"/>
<path d="M0.0518744 14.727L0.909123 17.2396L3.34344 18.6442L4.81294 11.7655L2.37862 10.3609L0.359263 13.2881C0.0473394 13.7402 -0.0805941 14.3389 0.0518744 14.727Z" fill="url(#paint9_linear_1_8429)"/>
<path d="M11.5353 2.14152L13.4156 3.07239L15.8258 1.52316C16.1981 1.28385 16.5329 1.41489 16.6306 1.83814L17.2629 4.57805L19.2823 5.17348C19.5942 5.26545 19.7221 5.71643 19.5897 6.25743L18.7324 9.75988L19.5897 12.2725C19.7221 12.6606 19.5942 13.2592 19.2823 13.7114L17.2629 16.6386L16.6306 20.1086C16.533 20.6446 16.1981 21.1623 15.8259 21.3529L13.4157 22.5867L11.5354 25.6887C11.2449 26.1678 10.8311 26.4068 10.5406 26.263L8.66027 25.3322L6.2501 26.8814C5.8778 27.1207 5.54299 26.9896 5.44533 26.5664L4.81304 23.8265L2.79369 23.2311C2.48176 23.1391 2.35388 22.6882 2.4863 22.1471L3.34355 18.6447L2.4863 16.1321C2.35388 15.744 2.48176 15.1453 2.79369 14.6931L4.81304 11.7659L5.44533 8.29593C5.54299 7.75994 5.87785 7.24224 6.2501 7.05166L8.66027 5.81789L10.5406 2.7158C10.831 2.23671 11.2449 1.99771 11.5353 2.14152Z" fill="url(#paint10_linear_1_8429)"/>
<path d="M16.8418 10.8502C16.8418 6.57633 14.2433 4.61192 11.038 6.46258C7.83256 8.31318 5.23413 13.2781 5.23413 17.5519C5.23413 21.8258 7.83261 23.7902 11.038 21.9395C14.2434 20.0889 16.8418 15.124 16.8418 10.8502Z" fill="url(#paint11_linear_1_8429)"/>
<path d="M10.3436 16.3061L6.67114 16.4566V18.1871L6.67431 18.1894C6.65617 18.6675 6.77956 19.0718 7.04745 19.2743L9.4351 21.0793C9.68596 21.269 10.0148 21.2463 10.3436 21.0565C10.6725 20.8666 11.0013 20.5096 11.2521 20.0302L10.3436 16.3061Z" fill="url(#paint12_linear_1_8429)"/>
<path d="M15.3703 7.91617C14.8685 7.56185 14.0551 8.0065 13.5532 8.96521L10.4339 14.9252L10.0708 14.6754L8.80347 13.9386L8.8032 13.9412C8.29859 13.6402 7.52951 14.1076 7.04747 15.0287C6.5457 15.9874 6.5457 17.0721 7.04747 17.4514L9.43512 19.2564C9.48195 19.2918 9.53225 19.3174 9.58404 19.3383L9.58298 19.3404L10.8563 20.0821L16.5551 8.60361C16.5551 8.60361 15.374 7.9188 15.3703 7.91617Z" fill="url(#paint13_linear_1_8429)"/>
<path d="M8.39306 18.2273L7.04602 17.4496C7.04655 17.45 7.04702 17.4505 7.04755 17.4509L9.4352 19.2559C9.48203 19.2914 9.53234 19.317 9.58412 19.3379L9.58307 19.34L10.8564 20.0816L10.9185 19.9565L8.39306 18.2273Z" fill="url(#paint14_linear_1_8429)"/>
<path d="M15.3704 7.91617C14.8687 7.56185 14.0552 8.0065 13.5534 8.96521L10.4341 14.9252L11.6893 15.8741L16.5552 8.60356C16.5552 8.60356 15.3741 7.9188 15.3704 7.91617Z" fill="url(#paint15_linear_1_8429)"/>
<path d="M11.6899 20.0103C11.3611 20.2001 11.0323 20.2227 10.7814 20.0331L8.39378 18.2281C7.89201 17.8487 7.89201 16.7641 8.39378 15.8054C8.89549 14.8467 9.70908 14.377 10.2107 14.7564L11.6899 15.8745L14.8995 9.74201C15.4013 8.7833 16.2147 8.3136 16.7165 8.69297C17.2183 9.07228 17.2183 10.1569 16.7165 11.1156L12.5984 18.984C12.3476 19.4634 12.0187 19.8204 11.6899 20.0103Z" fill="url(#paint16_linear_1_8429)"/>
<defs>
<linearGradient id="paint0_linear_1_8429" x1="9.67345" y1="40.9315" x2="9.67345" y2="-3.17874" gradientUnits="userSpaceOnUse">
<stop stop-color="#FFA538"/>
<stop offset="1" stop-color="#FCF3B3"/>
</linearGradient>
<linearGradient id="paint1_linear_1_8429" x1="4.11641" y1="23.4224" x2="4.11641" y2="27.3249" gradientUnits="userSpaceOnUse">
<stop stop-color="#FFA538"/>
<stop offset="1" stop-color="#FFA538" stop-opacity="0"/>
</linearGradient>
<linearGradient id="paint2_linear_1_8429" x1="0.595623" y1="22.1156" x2="2.22015" y2="19.3018" gradientUnits="userSpaceOnUse">
<stop stop-color="#FFA538"/>
<stop offset="1" stop-color="#FFA538" stop-opacity="0"/>
</linearGradient>
<linearGradient id="paint3_linear_1_8429" x1="11.9129" y1="5.11847" x2="15.1498" y2="-0.487976" gradientUnits="userSpaceOnUse">
<stop stop-color="#FFA538"/>
<stop offset="1" stop-color="#FFA538" stop-opacity="0"/>
</linearGradient>
<linearGradient id="paint4_linear_1_8429" x1="7.93686" y1="7.00591" x2="11.2111" y2="1.33476" gradientUnits="userSpaceOnUse">
<stop stop-color="#FFA538"/>
<stop offset="1" stop-color="#FFA538" stop-opacity="0"/>
</linearGradient>
<linearGradient id="paint5_linear_1_8429" x1="9.0706" y1="5.0422" x2="12.3448" y2="-0.628902" gradientUnits="userSpaceOnUse">
<stop stop-color="#FCF3B3" stop-opacity="0"/>
<stop offset="0.4701" stop-color="#FCF3B3" stop-opacity="0.89"/>
<stop offset="0.5279" stop-color="#FCF3B3"/>
<stop offset="0.5968" stop-color="#FCF3B3" stop-opacity="0.854"/>
<stop offset="1" stop-color="#FCF3B3" stop-opacity="0"/>
</linearGradient>
<linearGradient id="paint6_linear_1_8429" x1="1.04828" y1="14.5271" x2="6.3109" y2="5.41198" gradientUnits="userSpaceOnUse">
<stop stop-color="#FFA538"/>
<stop offset="1" stop-color="#FFA538" stop-opacity="0"/>
</linearGradient>
<linearGradient id="paint7_linear_1_8429" x1="3.45249" y1="10.3629" x2="6.90305" y2="4.38636" gradientUnits="userSpaceOnUse">
<stop stop-color="#FCF3B3" stop-opacity="0"/>
<stop offset="0.4701" stop-color="#FCF3B3" stop-opacity="0.89"/>
<stop offset="0.5279" stop-color="#FCF3B3"/>
<stop offset="0.5968" stop-color="#FCF3B3" stop-opacity="0.854"/>
<stop offset="1" stop-color="#FCF3B3" stop-opacity="0"/>
</linearGradient>
<linearGradient id="paint8_linear_1_8429" x1="1.19832" y1="17.0908" x2="3.90649" y2="12.4001" gradientUnits="userSpaceOnUse">
<stop stop-color="#FFA538"/>
<stop offset="1" stop-color="#FFA538" stop-opacity="0"/>
</linearGradient>
<linearGradient id="paint9_linear_1_8429" x1="0.71601" y1="17.9262" x2="3.42423" y2="13.2355" gradientUnits="userSpaceOnUse">
<stop stop-color="#FCF3B3" stop-opacity="0"/>
<stop offset="0.4701" stop-color="#FCF3B3" stop-opacity="0.89"/>
<stop offset="0.5279" stop-color="#FCF3B3"/>
<stop offset="0.5968" stop-color="#FCF3B3" stop-opacity="0.854"/>
<stop offset="1" stop-color="#FCF3B3" stop-opacity="0"/>
</linearGradient>
<linearGradient id="paint10_linear_1_8429" x1="11.0379" y1="28.6943" x2="-0.0696386" y2="9.45596" gradientUnits="userSpaceOnUse">
<stop stop-color="#FFA538"/>
<stop offset="0.2063" stop-color="#FBC33D"/>
<stop offset="0.3959" stop-color="#F8D840"/>
<stop offset="0.5206" stop-color="#F7E041"/>
<stop offset="1" stop-color="#FAEC8D"/>
</linearGradient>
<linearGradient id="paint11_linear_1_8429" x1="11.038" y1="26.124" x2="11.038" y2="-6.08243" gradientUnits="userSpaceOnUse">
<stop stop-color="#FFA538"/>
<stop offset="1" stop-color="#F7E041"/>
</linearGradient>
<linearGradient id="paint12_linear_1_8429" x1="8.96166" y1="14.428" x2="8.96166" y2="22.0769" gradientUnits="userSpaceOnUse">
<stop offset="0.0319" stop-color="#8B451C"/>
<stop offset="1" stop-color="#8B451C" stop-opacity="0"/>
</linearGradient>
<linearGradient id="paint13_linear_1_8429" x1="8.65497" y1="18.062" x2="10.0299" y2="15.7" gradientUnits="userSpaceOnUse">
<stop offset="0.0319" stop-color="#A996EB"/>
<stop offset="0.6819" stop-color="#D7CFF3"/>
<stop offset="1" stop-color="#E9E5F6"/>
</linearGradient>
<linearGradient id="paint14_linear_1_8429" x1="9.8334" y1="19.4043" x2="7.89836" y2="17.8102" gradientUnits="userSpaceOnUse">
<stop offset="0.0319" stop-color="#7662BD"/>
<stop offset="1" stop-color="#7662BD" stop-opacity="0"/>
</linearGradient>
<linearGradient id="paint15_linear_1_8429" x1="11.3398" y1="15.1623" x2="14.2462" y2="10.1693" gradientUnits="userSpaceOnUse">
<stop offset="0.0319" stop-color="#A996EB"/>
<stop offset="0.6819" stop-color="#D7CFF3"/>
<stop offset="1" stop-color="#E9E5F6"/>
</linearGradient>
<linearGradient id="paint16_linear_1_8429" x1="12.5552" y1="19.8775" x2="12.5552" y2="11.1326" gradientUnits="userSpaceOnUse">
<stop stop-color="#DFDAEF"/>
<stop offset="1" stop-color="white"/>
</linearGradient>
</defs>
</svg>
