<svg width="19" height="28" viewBox="0 0 19 28" fill="none" xmlns="http://www.w3.org/2000/svg">
<path d="M17.9417 2.33099L14.24 0.186542L14.2396 0.186925C13.791 -0.0868459 13.2001 -0.0698925 12.5521 0.304232L2.53848 6.08568C1.13654 6.89507 0 9.06659 0 10.9359V23.5972C0 24.6246 0.343827 25.3459 0.885899 25.6537L0.885133 25.6544L4.62364 27.8195L17.9417 2.33099Z" fill="url(#paint0_linear_1_8410)"/>
<path d="M16.3125 2.48191L6.29885 8.26331C4.89691 9.07275 3.76038 11.2443 3.76038 13.1135V25.7766C3.76038 27.6459 4.89686 28.5051 6.29885 27.6957L16.3125 21.9143C17.7145 21.1049 18.851 18.9334 18.851 17.0641V4.40093C18.851 2.53168 17.7144 1.67247 16.3125 2.48191Z" fill="url(#paint1_linear_1_8410)"/>
<path d="M15.4867 7.10065C14.6984 6.50477 13.4205 7.24262 12.6323 8.74869L11.3057 11.2832L9.9792 10.2804C9.19098 9.68452 7.91296 10.4224 7.12474 11.9284C6.33651 13.4345 6.33651 15.1385 7.12474 15.7344L8.45126 16.7372L7.12474 19.2717C6.33651 20.7778 6.33651 22.4818 7.12474 23.0777C7.91296 23.6736 9.19098 22.9358 9.9792 21.4296L11.3057 18.8952L12.6321 19.898C13.4204 20.4939 14.6984 19.756 15.4866 18.2499L15.4867 18.2499C16.2749 16.7438 16.2749 15.0398 15.4867 14.444L14.1601 13.4411L15.4866 10.9066C16.275 9.40052 16.275 7.69654 15.4867 7.10065Z" fill="white"/>
<defs>
<linearGradient id="paint0_linear_1_8410" x1="5.80054" y1="12.5619" x2="9.15425" y2="6.75304" gradientUnits="userSpaceOnUse">
<stop stop-color="#AB2C37"/>
<stop offset="1" stop-color="#FF959D"/>
</linearGradient>
<linearGradient id="paint1_linear_1_8410" x1="11.3057" y1="34.5144" x2="11.3057" y2="-4.89387" gradientUnits="userSpaceOnUse">
<stop stop-color="#FF4757"/>
<stop offset="1" stop-color="#FF7A85"/>
</linearGradient>
</defs>
</svg>
